<?xml version="1.0" encoding="UTF-8" standalone="no"?>
<svg
   xmlns:dc="http://purl.org/dc/elements/1.1/"
   xmlns:cc="http://creativecommons.org/ns#"
   xmlns:rdf="http://www.w3.org/1999/02/22-rdf-syntax-ns#"
   xmlns:svg="http://www.w3.org/2000/svg"
   xmlns="http://www.w3.org/2000/svg"
   xmlns:sodipodi="http://sodipodi.sourceforge.net/DTD/sodipodi-0.dtd"
   xmlns:inkscape="http://www.inkscape.org/namespaces/inkscape"
   id="logotipo"
   viewBox="0 0 816.92 87.58"
   version="1.1"
   sodipodi:docname="logo-neptuno-2.svg"
   inkscape:version="0.92.4 (5da689c313, 2019-01-14)">
  <metadata
     id="metadata29">
    <rdf:RDF>
      <cc:Work
         rdf:about="">
        <dc:format>image/svg+xml</dc:format>
        <dc:type
           rdf:resource="http://purl.org/dc/dcmitype/StillImage" />
        <dc:title>logo Neptuno</dc:title>
      </cc:Work>
    </rdf:RDF>
  </metadata>
  <sodipodi:namedview
     pagecolor="#ffffff"
     bordercolor="#666666"
     borderopacity="1"
     objecttolerance="10"
     gridtolerance="10"
     guidetolerance="10"
     inkscape:pageopacity="0"
     inkscape:pageshadow="2"
     inkscape:window-width="1920"
     inkscape:window-height="1018"
     id="namedview27"
     showgrid="false"
     inkscape:zoom="0.34764727"
     inkscape:cx="-526.39562"
     inkscape:cy="43.790001"
     inkscape:window-x="-8"
     inkscape:window-y="-8"
     inkscape:window-maximized="1"
     inkscape:current-layer="logotipo" />
  <defs
     id="defs4">
    <style
       id="style2">.cls-1,.cls-2{fill:#007fc8;}.cls-2{fill-rule:evenodd;}</style>
  </defs>
  <title
     id="title6">logo Neptuno</title>
  <path
     class="cls-1"
     d="M279.92,121.55V47.86h22.67l36.82,52v-52h17.74v73.69H334.73L297.56,69.08v52.47Z"
     transform="translate(-72.53 -37.43)"
     id="path8"
     style="fill:#ffffff;fill-opacity:1" />
  <path
     class="cls-1"
     d="M373.69,121.55V47.86h65.43V62.75H392.18V75.21H434v15h-41.8v15.84h46.94v15.5Z"
     transform="translate(-72.53 -37.43)"
     id="path10"
     style="fill:#ffffff;fill-opacity:1" />
  <path
     class="cls-1"
     d="M451.12,121.55V47.86h43.65q12.86,0,20.06,6.65T522,73q0,11.81-7.2,18.41T494.77,98H469.61v23.57Zm18.49-38h16.94q9.31,0,13.06-2.36t3.73-8c0-3.82-1.08-6.5-3.24-8S493.83,63,487.75,63H469.61Z"
     transform="translate(-72.53 -37.43)"
     id="path12"
     style="fill:#ffffff;fill-opacity:1" />
  <path
     class="cls-1"
     d="M567.87,62.75v58.8H549.53V62.75H524.32V47.86h68.76V62.75Z"
     transform="translate(-72.53 -37.43)"
     id="path14"
     style="fill:#ffffff;fill-opacity:1" />
  <path
     class="cls-1"
     d="M619.24,47.86V87.47q0,10.86,4.59,15.79t14.7,4.94a26.28,26.28,0,0,0,9.36-1.52,15.09,15.09,0,0,0,6.43-4.51,14.06,14.06,0,0,0,2.77-5.36,39,39,0,0,0,.82-9.34V47.86h18.34V89.41q0,16.74-9.57,25.41t-28.15,8.67q-18.54,0-28.11-8.67t-9.56-25.41V47.86Z"
     transform="translate(-72.53 -37.43)"
     id="path16"
     style="fill:#ffffff;fill-opacity:1" />
  <path
     class="cls-1"
     d="M692.89,121.55V47.86h22.67l36.82,52v-52h17.74v73.69H747.7L710.53,69.08v52.47Z"
     transform="translate(-72.53 -37.43)"
     id="path18"
     style="fill:#ffffff;fill-opacity:1" />
  <path
     class="cls-1"
     d="M782.68,84.73q0-17.69,12-28.25t32.19-10.57q20.18,0,32.13,10.57t12,28.25q0,17.68-12,28.23t-32.13,10.53q-20.19,0-32.19-10.53T782.68,84.73Zm44.2,23.57q11.05,0,17.41-6.31t6.35-17.26q0-11.07-6.35-17.37t-17.41-6.3q-11.07,0-17.47,6.33T803,84.73q0,11,6.38,17.26T826.88,108.3Z"
     transform="translate(-72.53 -37.43)"
     id="path20"
     style="fill:#ffffff;fill-opacity:1" />
  <path
     class="cls-2"
     d="M136.91,83.48A14.59,14.59,0,1,0,151.49,68.9,14.58,14.58,0,0,0,136.91,83.48ZM170.26,72l4.2-.3a28.65,28.65,0,0,0-6.54-11.27c-17.9-19.79-58-2.43-51.71,23C124.44,48.46,168.36,55.59,170.26,72Zm-51.73,28.66s-7.86,16-9.64,19.51-3.41,4.81-6,4.81H76.6c-2.71,0-5.38-.91-3.37-4.73,8.18-16.37,34.75-69.54,35.32-70.83,4.66-10.62,9.6-12.69,28-10.77A58.32,58.32,0,0,1,172.08,56c21,24.32-5.48,55.77-20.05,49.46l-1.84,3.79a28.81,28.81,0,0,0,13,0c17.39-3.74,25.42-24.27,21.39-39.7,1.66-.21,2.86-2.36,3.71-4.06.62-1.24,9.63-19.75,11.26-23,2.28-4.53,3.91-5.08,7.2-5,2.41,0,22.36,0,26.2,0s3.65,2.26,2.47,4.8c-1.45,3.14-35.69,72.39-35.69,72.39-6.29,14.29-28,9.86-36.62,8a86,86,0,0,1-9.51-2.54,21.3,21.3,0,0,0,15.5-6.08C134.69,124.41,118.9,82.82,132.19,73l-2.35-3.49a28.64,28.64,0,0,0-6.5,11.29A25.87,25.87,0,0,0,123.91,98C120.53,96.39,118.86,99.91,118.53,100.69Z"
     transform="translate(-72.53 -37.43)"
     id="path22"
     style="fill:#fffbff;fill-opacity:1" />
  <path
     class="cls-1"
     d="M880.16,47.86a9.13,9.13,0,0,1,6.66,2.79,9,9,0,0,1,1.95,3,9.53,9.53,0,0,1,0,7.12,9,9,0,0,1-2,3,9.48,9.48,0,0,1-3,2,9.28,9.28,0,0,1-3.52.69,9,9,0,0,1-3.55-.72,9.43,9.43,0,0,1-3-2.08,9,9,0,0,1-2-3,9.18,9.18,0,0,1-.68-3.48,9.39,9.39,0,0,1,.34-2.48,9.58,9.58,0,0,1,1-2.34A9,9,0,0,1,875.6,49,9.11,9.11,0,0,1,880.16,47.86Zm0,1.55a7.83,7.83,0,0,0-2.93.55,7.34,7.34,0,0,0-2.44,1.64,7.86,7.86,0,0,0-1.74,2.56,7.44,7.44,0,0,0-.61,3,7.65,7.65,0,0,0,.57,2.93,7.5,7.5,0,0,0,1.65,2.46,7.76,7.76,0,0,0,2.53,1.73,7.45,7.45,0,0,0,5.86,0,8.67,8.67,0,0,0,2.57-1.67,7.5,7.5,0,0,0,1.68-2.44,7.35,7.35,0,0,0,.59-2.88,8.14,8.14,0,0,0-.55-3A7.89,7.89,0,0,0,883.19,50,7.73,7.73,0,0,0,880.18,49.41Zm-3.85,2.41h4a5.93,5.93,0,0,1,3.3.74,2.49,2.49,0,0,1,1.1,2.21,2.67,2.67,0,0,1-.59,1.74,3.1,3.1,0,0,1-1.66,1l2.3,4.59H882l-2-4.21h-1.24v4.21h-2.49Zm2.49,1.58v3h1.24a2.93,2.93,0,0,0,1.61-.35,1.25,1.25,0,0,0,.51-1.1,1.3,1.3,0,0,0-.55-1.16,3,3,0,0,0-1.7-.37Z"
     transform="translate(-72.53 -37.43)"
     id="path24"
     style="fill:#ffffff" />
</svg>
